<svg xmlns="http://www.w3.org/2000/svg" width="1200" height="300" viewBox="0 0 1200 300" role="img" aria-labelledby="title desc">
<title id="title">Gabriel Villenet — Software, IoT y robótica</title>
<desc id="desc">Portafolio de desarrollo de aplicaciones, sistemas conectados, robótica y visión artificial.</desc>
<rect width="1200" height="300" rx="18" fill="#151515"/>
<rect x="36" y="36" width="6" height="160" rx="3" fill="#f5f5f5"/>
<g font-family="Arial, Helvetica, sans-serif" fill="#f5f5f5">
<text x="65" y="65" font-size="17" letter-spacing="4">PORTAFOLIO DE DESARROLLO</text>
<text x="62" y="132" font-size="60" font-weight="700">Gabriel Villenet</text>
<text x="65" y="178" font-size="25" fill="#dedede">Software, datos y hardware conectados.</text>
</g>
<g font-family="Arial, Helvetica, sans-serif" font-size="18" fill="#f5f5f5">
<rect x="65" y="222" width="220" height="42" rx="8" fill="#303030"/><text x="88" y="250">Aplicaciones</text>
<rect x="305" y="222" width="220" height="42" rx="8" fill="#303030"/><text x="328" y="250">IoT</text>
<rect x="545" y="222" width="220" height="42" rx="8" fill="#303030"/><text x="568" y="250">Robótica</text>
<rect x="785" y="222" width="330" height="42" rx="8" fill="#303030"/><text x="808" y="250">Visión artificial</text>
</g>
<g fill="none" stroke="#666" stroke-width="2">
<rect x="995" y="52" width="120" height="120" rx="24"/>
<rect x="1025" y="82" width="60" height="60" rx="12"/>
<path d="M1055 32v20m0 120v20m-80-80h20m120 0h20M1010 67l-15-15m105 15l15-15m-105 105l-15 15m105-15l15 15"/>
</g>
</svg>
